<?xml version="1.0" encoding="UTF-8"?>
<svg id="Layer_2" data-name="Layer 2" xmlns="http://www.w3.org/2000/svg" viewBox="0 0 1880.87 686.12">
  <defs>
    <style>
      .cls-1 {
        fill: #fff;
      }
    </style>
  </defs>
  <g id="_ÎÓÈ_11" data-name="—ÎÓÈ_11">
    <g>
      <g>
        <g>
          <path class="cls-1" d="M1844.9,684.83c-3.84,0-7.41-1.52-10.04-4.27-2.61-2.73-3.94-6.32-3.77-10.11,1.78-38.16,12.04-310.03,3.12-325.41-27.47-47.36-40.87-115.64-36.77-187.33,3.62-63.25,20.21-118.37,42.27-140.43,3.75-3.75,17.06-16.01,30.64-16.07,5.26,0,9.51,4.27,9.51,9.52v660.2c0,7.61-6.16,13.84-13.73,13.89h-21.24Z"/>
          <path class="cls-1" d="M1870.4,2.21c4.67,0,8.47,3.84,8.47,8.52v660.2c0,7.02-5.71,12.84-12.74,12.89h-21.23c-7.33,0-13.15-6.02-12.81-13.33,1.03-22.04,12.51-309.53,2.99-325.96-61.47-106-38-283.21,5.34-326.55,7.55-7.55,19.19-15.73,29.94-15.77.01,0,.02,0,.04,0M1870.4.21s-.05,0-.05,0c-13.95.06-27.51,12.54-31.34,16.36-22.22,22.22-38.93,77.6-42.56,141.08-1.9,33.25-.01,67,5.47,97.59,6.21,34.66,16.78,65.04,31.43,90.3,2.14,3.69,5.27,29.36,2.19,159.82-1.87,79.19-5.04,156.16-5.45,165.04-.19,4.06,1.25,7.91,4.04,10.84,2.82,2.95,6.64,4.58,10.76,4.58h21.23c8.13-.05,14.74-6.73,14.74-14.89V10.74c0-5.8-4.7-10.52-10.47-10.52h0Z"/>
        </g>
        <g>
          <path class="cls-1" d="M1659.63,685.12c-3.43,0-6.64-1.34-9.04-3.78-2.4-2.43-3.7-5.66-3.66-9.09l5.78-436.33c.04-3.21-1.74-6.2-4.55-7.61-22.99-11.58-37.85-38.43-37.85-68.42V11.8c0-5.95,4.36-10.8,9.72-10.8h2.51c5.36,0,9.72,4.84,9.72,10.8v101.86c0,5.55,3.32,10.06,7.4,10.06s7.41-4.51,7.41-10.06V10.23c0-5.09,3.78-9.23,8.43-9.23h.71c4.65,0,8.43,4.14,8.43,9.23v103.43c0,5.55,3.32,10.06,7.4,10.06s7.4-4.51,7.4-10.06V10.23c0-5.09,3.78-9.23,8.43-9.23h.71c4.65,0,8.43,4.14,8.43,9.23v103.43c0,5.55,3.32,10.06,7.4,10.06s7.4-4.51,7.4-10.06V11.8c0-5.95,4.36-10.8,9.72-10.8h2.51c5.36,0,9.72,4.84,9.72,10.8v148.1c0,29.99-14.86,56.84-37.85,68.42-2.8,1.41-4.59,4.4-4.55,7.61l5.78,436.33c.05,3.42-1.25,6.65-3.66,9.09s-5.61,3.78-9.04,3.78h-24.86Z"/>
          <path class="cls-1" d="M1724.08,2c4.81,0,8.72,4.4,8.72,9.8v148.1c0,27.95-13.52,55.55-37.3,67.52-3.14,1.58-5.14,4.93-5.1,8.52l5.78,436.33c.09,6.52-5.17,11.85-11.69,11.85h-24.86c-6.52,0-11.78-5.32-11.69-11.85l5.78-436.33c.05-3.59-1.95-6.94-5.1-8.52-23.71-11.94-37.3-39.47-37.3-67.52V11.8c0-5.4,3.91-9.8,8.72-9.8h2.51c4.81,0,8.72,4.4,8.72,9.8v101.86c0,6.1,3.77,11.06,8.4,11.06s8.4-4.96,8.4-11.06V10.23c0-4.54,3.33-8.23,7.43-8.23h.71c4.1,0,7.43,3.69,7.43,8.23v103.43c0,6.1,3.77,11.06,8.4,11.06s8.4-4.96,8.4-11.06V10.23c0-4.54,3.33-8.23,7.43-8.23h.71c4.1,0,7.43,3.69,7.43,8.23v103.43c0,6.1,3.77,11.06,8.4,11.06s8.4-4.96,8.4-11.06V11.8c0-5.4,3.91-9.8,8.72-9.8h2.51M1724.08,0h-2.51c-5.91,0-10.72,5.29-10.72,11.8v101.86c0,4.91-2.93,9.06-6.4,9.06s-6.4-4.15-6.4-9.06V10.23c0-5.64-4.23-10.23-9.43-10.23h-.71c-5.2,0-9.43,4.59-9.43,10.23v103.43c0,4.91-2.93,9.06-6.4,9.06s-6.4-4.15-6.4-9.06V10.23c0-5.64-4.23-10.23-9.43-10.23h-.71c-5.2,0-9.43,4.59-9.43,10.23v103.43c0,4.91-2.93,9.06-6.4,9.06s-6.4-4.15-6.4-9.06V11.8c0-6.51-4.81-11.8-10.72-11.8h-2.51c-5.91,0-10.72,5.29-10.72,11.8v148.1c0,30.36,15.07,57.56,38.4,69.31,2.46,1.24,4.03,3.87,4,6.71l-5.78,436.33c-.05,3.69,1.35,7.18,3.94,9.8,2.59,2.63,6.05,4.07,9.75,4.07h24.86c3.69,0,7.16-1.45,9.75-4.07,2.59-2.63,3.99-6.11,3.94-9.8l-5.78-436.32c-.04-2.83,1.53-5.47,4-6.71,23.33-11.74,38.4-38.95,38.4-69.31V11.8c0-6.51-4.81-11.8-10.72-11.8h0Z"/>
        </g>
      </g>
      <g>
        <path class="cls-1" d="M0,452.43v-214.31c0-11.13,2.53-19.48,7.61-25.05,5.07-5.57,11.63-8.35,19.67-8.35s15,2.75,20.13,8.26c5.13,5.51,7.7,13.89,7.7,25.14v214.31c0,11.26-2.57,19.67-7.7,25.23-5.13,5.57-11.85,8.35-20.13,8.35s-14.44-2.81-19.58-8.44c-5.13-5.63-7.7-14.01-7.7-25.14Z"/>
        <path class="cls-1" d="M172.19,238.13v77.93h118.94v-77.93c0-11.13,2.5-19.48,7.51-25.05s11.6-8.35,19.76-8.35,15,2.75,20.13,8.26c5.13,5.51,7.7,13.89,7.7,25.14v214.31c0,11.26-2.6,19.67-7.79,25.23s-11.88,8.35-20.04,8.35-14.91-2.81-19.85-8.44c-4.95-5.63-7.42-14.01-7.42-25.14v-91.47h-118.94v91.47c0,11.26-2.6,19.67-7.79,25.23s-11.88,8.35-20.04,8.35-14.91-2.81-19.85-8.44c-4.95-5.63-7.42-14.01-7.42-25.14v-214.31c0-11.13,2.44-19.48,7.33-25.05,4.89-5.57,11.53-8.35,19.95-8.35s15,2.75,20.13,8.26c5.13,5.51,7.7,13.89,7.7,25.14Z"/>
        <path class="cls-1" d="M529.92,457.44c-12.25,9.53-24.09,16.67-35.53,21.43-11.44,4.76-24.28,7.14-38.5,7.14-12.99,0-24.4-2.57-34.23-7.7s-17.41-12.09-22.73-20.87c-5.32-8.78-7.98-18.31-7.98-28.57,0-13.85,4.39-25.67,13.17-35.44,8.78-9.77,20.84-16.33,36.18-19.67,3.21-.74,11.19-2.41,23.94-5.01,12.74-2.6,23.66-4.98,32.75-7.14,9.09-2.16,18.95-4.79,29.59-7.89-.62-13.36-3.31-23.16-8.07-29.41-4.76-6.24-14.63-9.37-29.59-9.37-12.87,0-22.54,1.79-29.04,5.38-6.49,3.59-12.06,8.97-16.7,16.14-4.64,7.18-7.92,11.91-9.83,14.19-1.92,2.29-6.03,3.43-12.34,3.43-5.69,0-10.61-1.82-14.75-5.47-4.15-3.65-6.22-8.32-6.22-14.01,0-8.91,3.15-17.56,9.46-25.98,6.31-8.41,16.14-15.34,29.5-20.78,13.36-5.44,29.99-8.16,49.91-8.16,22.27,0,39.77,2.63,52.51,7.89,12.74,5.26,21.74,13.58,27,24.96,5.26,11.38,7.89,26.47,7.89,45.27,0,11.88-.03,21.96-.09,30.24-.06,8.29-.16,17.51-.28,27.65,0,9.53,1.58,19.45,4.73,29.78,3.15,10.33,4.73,16.98,4.73,19.95,0,5.2-2.44,9.93-7.33,14.19-4.89,4.27-10.42,6.4-16.61,6.4-5.2,0-10.33-2.44-15.4-7.33-5.07-4.89-10.46-11.97-16.14-21.25ZM526.58,384.15c-7.42,2.72-18.22,5.6-32.38,8.63-14.17,3.03-23.97,5.26-29.41,6.68-5.44,1.42-10.64,4.21-15.59,8.35-4.95,4.15-7.42,9.93-7.42,17.35s2.9,14.19,8.72,19.58c5.81,5.38,13.42,8.07,22.82,8.07,10.02,0,19.26-2.19,27.74-6.59,8.47-4.39,14.69-10.05,18.65-16.98,4.57-7.67,6.87-20.29,6.87-37.85v-7.24Z"/>
        <path class="cls-1" d="M766.49,457.07v-5.01c-6.8,7.79-13.52,14.13-20.13,19.02-6.62,4.89-13.79,8.6-21.52,11.13-7.73,2.53-16.17,3.8-25.33,3.8-12.12,0-23.35-2.57-33.68-7.7-10.33-5.13-19.27-12.46-26.81-21.99-7.55-9.52-13.27-20.72-17.16-33.58-3.9-12.86-5.84-26.78-5.84-41.75,0-31.66,7.73-56.34,23.19-74.03,15.46-17.69,35.81-26.53,61.04-26.53,14.59,0,26.9,2.5,36.92,7.51s19.79,12.71,29.32,23.1v-74.78c0-10.39,2.07-18.24,6.22-23.56,4.14-5.32,10.05-7.98,17.72-7.98s13.57,2.44,17.72,7.33c4.14,4.89,6.22,12.09,6.22,21.62v223.4c0,9.65-2.23,16.88-6.68,21.71s-10.21,7.24-17.26,7.24-12.65-2.5-17.16-7.51c-4.52-5.01-6.77-12.15-6.77-21.43ZM666.86,382.67c0,13.73,2.13,25.42,6.4,35.07s10.11,16.92,17.53,21.8c7.42,4.89,15.52,7.33,24.31,7.33s17.04-2.32,24.4-6.96c7.36-4.64,13.23-11.75,17.63-21.34,4.39-9.58,6.59-21.55,6.59-35.9,0-13.48-2.2-25.08-6.59-34.79-4.39-9.71-10.33-17.13-17.81-22.27-7.49-5.13-15.68-7.7-24.58-7.7s-17.57,2.63-24.86,7.89c-7.3,5.26-12.96,12.8-16.98,22.64-4.02,9.83-6.03,21.25-6.03,34.23Z"/>
        <path class="cls-1" d="M1045.37,254.83h-60.12v197.61c0,11.38-2.54,19.82-7.61,25.33-5.07,5.5-11.63,8.26-19.67,8.26s-14.81-2.78-19.95-8.35c-5.13-5.57-7.7-13.98-7.7-25.23v-197.61h-60.12c-9.4,0-16.39-2.07-20.97-6.22-4.58-4.14-6.87-9.62-6.87-16.42s2.38-12.62,7.14-16.7c4.76-4.08,11.66-6.12,20.69-6.12h175.16c9.52,0,16.61,2.1,21.25,6.31,4.64,4.21,6.96,9.71,6.96,16.51s-2.35,12.28-7.05,16.42c-4.7,4.15-11.75,6.22-21.15,6.22Z"/>
        <path class="cls-1" d="M1147.24,235.53v75.15c6.43-7.42,12.71-13.3,18.83-17.63,6.12-4.33,12.9-7.58,20.32-9.74,7.42-2.16,15.4-3.25,23.94-3.25,12.86,0,24.27,2.72,34.23,8.16,9.96,5.44,17.78,13.36,23.47,23.75,3.59,6.06,6,12.83,7.24,20.32,1.23,7.49,1.86,16.11,1.86,25.88v97.04c0,10.14-2.32,17.81-6.96,23.01s-10.79,7.79-18.46,7.79c-16.7,0-25.05-10.27-25.05-30.8v-85.54c0-16.2-2.41-28.67-7.24-37.39s-13.98-13.08-27.46-13.08c-9.03,0-17.16,2.57-24.4,7.7-7.24,5.13-12.65,12.15-16.24,21.06-2.72,7.55-4.08,20.97-4.08,40.26v66.98c0,10.02-2.26,17.66-6.77,22.92-4.52,5.26-10.79,7.89-18.83,7.89-16.7,0-25.05-10.27-25.05-30.8v-219.69c0-10.27,2.19-17.97,6.59-23.1,4.39-5.13,10.54-7.7,18.46-7.7s14.32,2.6,18.83,7.79c4.51,5.2,6.77,12.87,6.77,23.01Z"/>
        <path class="cls-1" d="M1468.6,395.47h-99.08c.12,11.5,2.44,21.65,6.96,30.43,4.51,8.78,10.51,15.4,18,19.85,7.48,4.45,15.74,6.68,24.77,6.68,6.06,0,11.6-.71,16.61-2.13,5.01-1.42,9.86-3.65,14.57-6.68,4.7-3.03,9.03-6.28,12.99-9.74,3.96-3.46,9.09-8.16,15.4-14.1,2.6-2.23,6.31-3.34,11.13-3.34,5.2,0,9.4,1.42,12.62,4.27,3.22,2.85,4.82,6.87,4.82,12.06,0,4.58-1.79,9.93-5.38,16.05-3.59,6.12-9,12-16.24,17.63-7.24,5.63-16.33,10.3-27.28,14.01s-23.54,5.57-37.76,5.57c-32.53,0-57.83-9.28-75.89-27.83-18.06-18.55-27.09-43.73-27.09-75.52,0-14.97,2.23-28.85,6.68-41.66s10.95-23.78,19.48-32.93c8.54-9.15,19.05-16.17,31.54-21.06,12.49-4.89,26.35-7.33,41.56-7.33,19.79,0,36.77,4.17,50.93,12.52,14.16,8.35,24.77,19.14,31.82,32.38,7.05,13.24,10.58,26.72,10.58,40.45,0,12.74-3.65,21-10.95,24.77-7.3,3.77-17.57,5.66-30.8,5.66ZM1369.52,366.71h91.85c-1.24-17.32-5.91-30.27-14.01-38.87-8.1-8.6-18.77-12.9-32.01-12.9s-22.98,4.36-31.08,13.08c-8.1,8.72-13.02,21.62-14.75,38.69Z"/>
      </g>
    </g>
  </g>
</svg>